# xmcd
#
# Track frame offsets: 
#        150
#        11308
#        29443
#        44500
#        58700
#        81028
#        98295
#        110480
#        127425
#        143468
#        159560
#        174898
#        187045
#        208853
#
# Disc length: 2993 seconds
#
# Revision: 0
# Processed by: cddbd v1.5.2PL0 Copyright (c) Steve Scherf et al.
# Submitted via: ExactAudioCopy v0.99pb3
#
DISCID=b70baf0e
DTITLE=Various Artist - From West Helena To Chicago - Chicago Blues Session V
DTITLE=ol. 8
DYEAR=1900
DGENRE=Blues
TTITLE0=Honeyboy Edwards - West Helena Blues
TTITLE1=Honeyboy Edwards - Drop Down Mama
TTITLE2=Honeyboy Edwards - Build Myself A Cave
TTITLE3=Honeyboy Edwards - Little Boy Blue
TTITLE4=Honeyboy Edwards - Sweet Home Chicago
TTITLE5=Magic Slim - Bring Your Fine-Self Home
TTITLE6=John Primer - Mojo Hand
TTITLE7=Eddie C. Campbell - My Sister Taught Me
TTITLE8=Eddie C. Campbell - Rock Me
TTITLE9=Eddie C. Campbell - Just Walking
TTITLE10=Eddie C. Campbell - Last Affair
TTITLE11=Eddie C. Campbell - Jump, Jump, Jump
TTITLE12=Johnny B. Moore - Straighten Up Woman
TTITLE13=Johnny B. Moore - Memphis Bound
EXTD=
EXTT0=
EXTT1=
EXTT2=
EXTT3=
EXTT4=
EXTT5=
EXTT6=
EXTT7=
EXTT8=
EXTT9=
EXTT10=
EXTT11=
EXTT12=
EXTT13=
PLAYORDER=
